<?xml version="1.0" encoding="utf-8"?>
<!-- Svg Vector Icons : http://www.onlinewebfonts.com/icon -->
<!DOCTYPE svg PUBLIC "-//W3C//DTD SVG 1.1//EN" "http://www.w3.org/Graphics/SVG/1.1/DTD/svg11.dtd">
<svg version="1.1" xmlns="http://www.w3.org/2000/svg" xmlns:xlink="http://www.w3.org/1999/xlink" x="0px" y="0px" viewBox="0 0 256 256" enable-background="new 0 0 256 256" xml:space="preserve">
<metadata> Svg Vector Icons : http://www.onlinewebfonts.com/icon </metadata>
<g><g><path fill="#000000" d="M80.8,72.1c-5.8-5.8-15.2-5.8-21,0l-45.4,45.4c-5.8,5.8-5.8,15.2,0,21L59.8,184c2.9,2.9,6.7,4.4,10.5,4.4c3.8,0,7.6-1.4,10.5-4.4c5.8-5.8,5.8-15.2,0-21L45.9,128l34.9-34.9C86.6,87.3,86.6,77.9,80.8,72.1z M241.6,117.5l-45.4-45.4c-5.8-5.8-15.2-5.8-21,0s-5.8,15.2,0,21l34.9,34.9l-34.9,34.9c-5.8,5.8-5.8,15.2,0,21c2.9,2.9,6.7,4.4,10.5,4.4c3.8,0,7.6-1.4,10.5-4.4l45.4-45.4C247.5,132.7,247.5,123.3,241.6,117.5z M150.6,68.7c-7.7-3-16.3,0.9-19.2,8.5l-35,90.9c-2.9,7.7,0.9,16.3,8.5,19.2c1.8,0.7,3.6,1,5.3,1c6,0,11.6-3.6,13.9-9.5l35-90.9C162.1,80.3,158.3,71.7,150.6,68.7z"/></g></g>
</svg>